STARTFONT 2.1
COMMENT
COMMENT Converted from OpenType font "manrope-regular.otf" by "otf2bdf 3.0".
COMMENT
FONT -FreeType-Manrope-Medium-R-Normal--11-80-100-100-P-53-ISO10646-1
SIZE 8 100 100
FONTBOUNDINGBOX 10 14 0 -3
STARTPROPERTIES 19
FOUNDRY "FreeType"
FAMILY_NAME "Manrope"
WEIGHT_NAME "Medium"
SLANT "R"
SETWIDTH_NAME "Normal"
ADD_STYLE_NAME ""
PIXEL_SIZE 11
POINT_SIZE 80
RESOLUTION_X 100
RESOLUTION_Y 100
SPACING "P"
AVERAGE_WIDTH 53
CHARSET_REGISTRY "ISO10646"
CHARSET_ENCODING "1"
FONT_ASCENT 11
FONT_DESCENT 3
COPYRIGHT "Copyright 2019-2021 The Manrope Project Authors (https://github.com/sharanda/manrope)"
_OTF_FONTFILE "manrope-regular.otf"
_OTF_PSNAME "Manrope-Regular"
ENDPROPERTIES
CHARS 191
STARTCHAR 0020
ENCODING 32
SWIDTH 180 0
DWIDTH 2 0
BBX 0 0 0 0
BITMAP
ENDCHAR
STARTCHAR 0021
ENCODING 33
SWIDTH 270 0
DWIDTH 3 0
BBX 1 8 1 0
BITMAP
80
80
80
80
80
80
00
80
ENDCHAR
STARTCHAR 0022
ENCODING 34
SWIDTH 360 0
DWIDTH 4 0
BBX 2 2 1 6
BITMAP
C0
C0
ENDCHAR
STARTCHAR 0023
ENCODING 35
SWIDTH 900 0
DWIDTH 10 0
BBX 8 8 1 0
BITMAP
12
14
FF
24
24
FF
28
48
ENDCHAR
STARTCHAR 0024
ENCODING 36
SWIDTH 630 0
DWIDTH 7 0
BBX 5 10 1 -1
BITMAP
20
F0
88
80
C0
38
08
88
F0
20
ENDCHAR
STARTCHAR 0025
ENCODING 37
SWIDTH 900 0
DWIDTH 10 0
BBX 8 8 1 0
BITMAP
E1
92
94
68
16
29
49
87
ENDCHAR
STARTCHAR 0026
ENCODING 38
SWIDTH 630 0
DWIDTH 7 0
BBX 6 8 1 0
BITMAP
70
80
80
40
A8
98
88
F4
ENDCHAR
STARTCHAR 0027
ENCODING 39
SWIDTH 180 0
DWIDTH 2 0
BBX 1 2 1 6
BITMAP
80
80
ENDCHAR
STARTCHAR 0028
ENCODING 40
SWIDTH 450 0
DWIDTH 5 0
BBX 2 11 2 -2
BITMAP
40
80
80
80
80
80
80
80
80
80
40
ENDCHAR
STARTCHAR 0029
ENCODING 41
SWIDTH 450 0
DWIDTH 5 0
BBX 3 11 0 -2
BITMAP
40
40
20
20
20
20
20
20
20
40
80
ENDCHAR
STARTCHAR 002A
ENCODING 42
SWIDTH 450 0
DWIDTH 5 0
BBX 4 4 0 4
BITMAP
20
F0
60
40
ENDCHAR
STARTCHAR 002B
ENCODING 43
SWIDTH 540 0
DWIDTH 6 0
BBX 5 5 1 1
BITMAP
20
20
F8
20
20
ENDCHAR
STARTCHAR 002C
ENCODING 44
SWIDTH 270 0
DWIDTH 3 0
BBX 1 2 1 -1
BITMAP
80
80
ENDCHAR
STARTCHAR 002D
ENCODING 45
SWIDTH 450 0
DWIDTH 5 0
BBX 3 1 1 3
BITMAP
E0
ENDCHAR
STARTCHAR 002E
ENCODING 46
SWIDTH 270 0
DWIDTH 3 0
BBX 1 1 1 0
BITMAP
80
ENDCHAR
STARTCHAR 002F
ENCODING 47
SWIDTH 360 0
DWIDTH 4 0
BBX 2 8 1 0
BITMAP
40
40
40
40
80
80
80
80
ENDCHAR
STARTCHAR 0030
ENCODING 48
SWIDTH 630 0
DWIDTH 7 0
BBX 5 8 1 0
BITMAP
70
88
88
88
88
88
88
70
ENDCHAR
STARTCHAR 0031
ENCODING 49
SWIDTH 360 0
DWIDTH 4 0
BBX 2 8 1 0
BITMAP
C0
40
40
40
40
40
40
40
ENDCHAR
STARTCHAR 0032
ENCODING 50
SWIDTH 540 0
DWIDTH 6 0
BBX 5 8 1 0
BITMAP
70
88
08
08
10
20
C0
F8
ENDCHAR
STARTCHAR 0033
ENCODING 51
SWIDTH 540 0
DWIDTH 6 0
BBX 4 8 1 0
BITMAP
F0
10
60
70
10
10
10
F0
ENDCHAR
STARTCHAR 0034
ENCODING 52
SWIDTH 630 0
DWIDTH 7 0
BBX 5 8 1 0
BITMAP
20
40
40
40
90
90
F8
10
ENDCHAR
STARTCHAR 0035
ENCODING 53
SWIDTH 540 0
DWIDTH 6 0
BBX 5 8 1 0
BITMAP
F0
80
80
F0
88
08
88
70
ENDCHAR
STARTCHAR 0036
ENCODING 54
SWIDTH 630 0
DWIDTH 7 0
BBX 5 8 1 0
BITMAP
70
80
80
F0
88
88
88
70
ENDCHAR
STARTCHAR 0037
ENCODING 55
SWIDTH 540 0
DWIDTH 6 0
BBX 5 8 0 0
BITMAP
F8
08
10
10
10
20
20
40
ENDCHAR
STARTCHAR 0038
ENCODING 56
SWIDTH 540 0
DWIDTH 6 0
BBX 5 8 1 0
BITMAP
70
88
88
70
88
88
88
70
ENDCHAR
STARTCHAR 0039
ENCODING 57
SWIDTH 630 0
DWIDTH 7 0
BBX 5 8 1 0
BITMAP
70
88
88
88
78
08
08
70
ENDCHAR
STARTCHAR 003A
ENCODING 58
SWIDTH 270 0
DWIDTH 3 0
BBX 1 4 1 1
BITMAP
80
00
00
80
ENDCHAR
STARTCHAR 003B
ENCODING 59
SWIDTH 270 0
DWIDTH 3 0
BBX 1 7 1 -1
BITMAP
80
00
00
00
00
80
80
ENDCHAR
STARTCHAR 003C
ENCODING 60
SWIDTH 630 0
DWIDTH 7 0
BBX 3 5 2 1
BITMAP
20
40
80
80
40
ENDCHAR
STARTCHAR 003D
ENCODING 61
SWIDTH 720 0
DWIDTH 8 0
BBX 6 2 1 3
BITMAP
FC
FC
ENDCHAR
STARTCHAR 003E
ENCODING 62
SWIDTH 630 0
DWIDTH 7 0
BBX 3 5 2 1
BITMAP
80
40
20
40
80
ENDCHAR
STARTCHAR 003F
ENCODING 63
SWIDTH 540 0
DWIDTH 6 0
BBX 4 8 1 0
BITMAP
F0
90
10
10
20
40
00
40
ENDCHAR
STARTCHAR 0040
ENCODING 64
SWIDTH 900 0
DWIDTH 10 0
BBX 8 8 1 -1
BITMAP
3C
42
9D
A5
A5
9F
40
3C
ENDCHAR
STARTCHAR 0041
ENCODING 65
SWIDTH 630 0
DWIDTH 7 0
BBX 7 8 0 0
BITMAP
10
28
28
28
44
7C
44
82
ENDCHAR
STARTCHAR 0042
ENCODING 66
SWIDTH 630 0
DWIDTH 7 0
BBX 5 8 1 0
BITMAP
F0
88
88
F0
88
88
88
F8
ENDCHAR
STARTCHAR 0043
ENCODING 67
SWIDTH 720 0
DWIDTH 8 0
BBX 7 8 0 0
BITMAP
3C
42
80
80
80
80
42
3C
ENDCHAR
STARTCHAR 0044
ENCODING 68
SWIDTH 630 0
DWIDTH 7 0
BBX 6 8 1 0
BITMAP
F0
88
84
84
84
84
88
F0
ENDCHAR
STARTCHAR 0045
ENCODING 69
SWIDTH 540 0
DWIDTH 6 0
BBX 5 8 1 0
BITMAP
F8
80
80
F0
80
80
80
F8
ENDCHAR
STARTCHAR 0046
ENCODING 70
SWIDTH 540 0
DWIDTH 6 0
BBX 4 8 1 0
BITMAP
F0
80
80
80
F0
80
80
80
ENDCHAR
STARTCHAR 0047
ENCODING 71
SWIDTH 720 0
DWIDTH 8 0
BBX 7 8 0 0
BITMAP
3C
42
80
80
86
82
42
3C
ENDCHAR
STARTCHAR 0048
ENCODING 72
SWIDTH 720 0
DWIDTH 8 0
BBX 6 8 1 0
BITMAP
84
84
84
FC
84
84
84
84
ENDCHAR
STARTCHAR 0049
ENCODING 73
SWIDTH 270 0
DWIDTH 3 0
BBX 1 8 1 0
BITMAP
80
80
80
80
80
80
80
80
ENDCHAR
STARTCHAR 004A
ENCODING 74
SWIDTH 450 0
DWIDTH 5 0
BBX 4 8 0 0
BITMAP
10
10
10
10
10
10
90
70
ENDCHAR
STARTCHAR 004B
ENCODING 75
SWIDTH 630 0
DWIDTH 7 0
BBX 5 8 1 0
BITMAP
88
90
A0
C0
C0
A0
90
88
ENDCHAR
STARTCHAR 004C
ENCODING 76
SWIDTH 540 0
DWIDTH 6 0
BBX 5 8 1 0
BITMAP
80
80
80
80
80
80
80
F8
ENDCHAR
STARTCHAR 004D
ENCODING 77
SWIDTH 810 0
DWIDTH 9 0
BBX 8 8 1 0
BITMAP
81
83
C5
C5
A5
A9
99
91
ENDCHAR
STARTCHAR 004E
ENCODING 78
SWIDTH 720 0
DWIDTH 8 0
BBX 6 8 1 0
BITMAP
84
C4
C4
A4
94
94
8C
84
ENDCHAR
STARTCHAR 004F
ENCODING 79
SWIDTH 720 0
DWIDTH 8 0
BBX 8 8 0 0
BITMAP
3C
42
82
81
81
81
42
3C
ENDCHAR
STARTCHAR 0050
ENCODING 80
SWIDTH 630 0
DWIDTH 7 0
BBX 5 8 1 0
BITMAP
F0
88
88
88
F8
80
80
80
ENDCHAR
STARTCHAR 0051
ENCODING 81
SWIDTH 720 0
DWIDTH 8 0
BBX 8 8 0 0
BITMAP
3C
42
82
81
81
86
46
3D
ENDCHAR
STARTCHAR 0052
ENCODING 82
SWIDTH 630 0
DWIDTH 7 0
BBX 5 8 1 0
BITMAP
F0
88
88
88
F8
90
88
88
ENDCHAR
STARTCHAR 0053
ENCODING 83
SWIDTH 630 0
DWIDTH 7 0
BBX 5 8 1 0
BITMAP
70
88
80
E0
18
08
88
70
ENDCHAR
STARTCHAR 0054
ENCODING 84
SWIDTH 630 0
DWIDTH 7 0
BBX 7 8 0 0
BITMAP
FE
10
10
10
10
10
10
10
ENDCHAR
STARTCHAR 0055
ENCODING 85
SWIDTH 720 0
DWIDTH 8 0
BBX 6 8 1 0
BITMAP
84
84
84
84
84
84
84
78
ENDCHAR
STARTCHAR 0056
ENCODING 86
SWIDTH 630 0
DWIDTH 7 0
BBX 6 8 0 0
BITMAP
84
84
44
48
48
28
30
10
ENDCHAR
STARTCHAR 0057
ENCODING 87
SWIDTH 900 0
DWIDTH 10 0
BBX 10 8 0 0
BITMAP
8440
8C40
4C80
4A80
5280
3280
3300
2100
ENDCHAR
STARTCHAR 0058
ENCODING 88
SWIDTH 630 0
DWIDTH 7 0
BBX 6 8 0 0
BITMAP
44
44
28
10
10
28
44
84
ENDCHAR
STARTCHAR 0059
ENCODING 89
SWIDTH 540 0
DWIDTH 6 0
BBX 6 8 0 0
BITMAP
84
48
48
30
10
10
10
10
ENDCHAR
STARTCHAR 005A
ENCODING 90
SWIDTH 630 0
DWIDTH 7 0
BBX 5 8 1 0
BITMAP
F8
10
10
20
20
40
80
F8
ENDCHAR
STARTCHAR 005B
ENCODING 91
SWIDTH 450 0
DWIDTH 5 0
BBX 2 13 2 -3
BITMAP
C0
80
80
80
80
80
80
80
80
80
80
80
C0
ENDCHAR
STARTCHAR 005C
ENCODING 92
SWIDTH 360 0
DWIDTH 4 0
BBX 2 8 1 0
BITMAP
80
80
80
80
40
40
40
40
ENDCHAR
STARTCHAR 005D
ENCODING 93
SWIDTH 450 0
DWIDTH 5 0
BBX 2 13 1 -3
BITMAP
C0
40
40
40
40
40
40
40
40
40
40
40
C0
ENDCHAR
STARTCHAR 005E
ENCODING 94
SWIDTH 630 0
DWIDTH 7 0
BBX 5 3 1 5
BITMAP
20
50
88
ENDCHAR
STARTCHAR 005F
ENCODING 95
SWIDTH 630 0
DWIDTH 7 0
BBX 7 1 0 -1
BITMAP
FE
ENDCHAR
STARTCHAR 0060
ENCODING 96
SWIDTH 450 0
DWIDTH 5 0
BBX 1 2 2 9
BITMAP
80
80
ENDCHAR
STARTCHAR 0061
ENCODING 97
SWIDTH 540 0
DWIDTH 6 0
BBX 6 6 0 0
BITMAP
78
48
1C
64
8C
74
ENDCHAR
STARTCHAR 0062
ENCODING 98
SWIDTH 630 0
DWIDTH 7 0
BBX 5 8 1 0
BITMAP
80
80
F0
88
88
88
88
F0
ENDCHAR
STARTCHAR 0063
ENCODING 99
SWIDTH 540 0
DWIDTH 6 0
BBX 6 6 0 0
BITMAP
38
44
80
80
44
38
ENDCHAR
STARTCHAR 0064
ENCODING 100
SWIDTH 630 0
DWIDTH 7 0
BBX 6 8 0 0
BITMAP
04
04
3C
44
84
84
44
3C
ENDCHAR
STARTCHAR 0065
ENCODING 101
SWIDTH 630 0
DWIDTH 7 0
BBX 6 6 0 0
BITMAP
38
44
FC
80
44
38
ENDCHAR
STARTCHAR 0066
ENCODING 102
SWIDTH 360 0
DWIDTH 4 0
BBX 4 8 0 0
BITMAP
30
40
F0
40
40
40
40
40
ENDCHAR
STARTCHAR 0067
ENCODING 103
SWIDTH 630 0
DWIDTH 7 0
BBX 6 9 0 -3
BITMAP
3C
44
84
84
44
3C
04
4C
38
ENDCHAR
STARTCHAR 0068
ENCODING 104
SWIDTH 630 0
DWIDTH 7 0
BBX 5 8 1 0
BITMAP
80
80
F0
88
88
88
88
88
ENDCHAR
STARTCHAR 0069
ENCODING 105
SWIDTH 270 0
DWIDTH 3 0
BBX 1 8 1 0
BITMAP
80
00
80
80
80
80
80
80
ENDCHAR
STARTCHAR 006A
ENCODING 106
SWIDTH 270 0
DWIDTH 3 0
BBX 2 11 0 -3
BITMAP
40
00
40
40
40
40
40
40
40
40
80
ENDCHAR
STARTCHAR 006B
ENCODING 107
SWIDTH 540 0
DWIDTH 6 0
BBX 4 8 1 0
BITMAP
80
80
90
A0
C0
C0
A0
90
ENDCHAR
STARTCHAR 006C
ENCODING 108
SWIDTH 270 0
DWIDTH 3 0
BBX 1 8 1 0
BITMAP
80
80
80
80
80
80
80
80
ENDCHAR
STARTCHAR 006D
ENCODING 109
SWIDTH 810 0
DWIDTH 9 0
BBX 8 6 1 0
BITMAP
FE
91
91
91
91
91
ENDCHAR
STARTCHAR 006E
ENCODING 110
SWIDTH 630 0
DWIDTH 7 0
BBX 5 6 1 0
BITMAP
F0
88
88
88
88
88
ENDCHAR
STARTCHAR 006F
ENCODING 111
SWIDTH 630 0
DWIDTH 7 0
BBX 6 6 0 0
BITMAP
38
44
84
84
44
38
ENDCHAR
STARTCHAR 0070
ENCODING 112
SWIDTH 630 0
DWIDTH 7 0
BBX 5 9 1 -3
BITMAP
F0
88
88
88
88
F0
80
80
80
ENDCHAR
STARTCHAR 0071
ENCODING 113
SWIDTH 630 0
DWIDTH 7 0
BBX 6 9 0 -3
BITMAP
3C
44
84
84
44
3C
04
04
04
ENDCHAR
STARTCHAR 0072
ENCODING 114
SWIDTH 360 0
DWIDTH 4 0
BBX 3 6 1 0
BITMAP
E0
80
80
80
80
80
ENDCHAR
STARTCHAR 0073
ENCODING 115
SWIDTH 540 0
DWIDTH 6 0
BBX 5 6 0 0
BITMAP
78
88
60
18
88
78
ENDCHAR
STARTCHAR 0074
ENCODING 116
SWIDTH 360 0
DWIDTH 4 0
BBX 4 8 0 0
BITMAP
40
40
F0
40
40
40
40
30
ENDCHAR
STARTCHAR 0075
ENCODING 117
SWIDTH 630 0
DWIDTH 7 0
BBX 5 6 1 0
BITMAP
88
88
88
88
88
78
ENDCHAR
STARTCHAR 0076
ENCODING 118
SWIDTH 540 0
DWIDTH 6 0
BBX 5 6 0 0
BITMAP
88
48
48
50
30
20
ENDCHAR
STARTCHAR 0077
ENCODING 119
SWIDTH 810 0
DWIDTH 9 0
BBX 8 6 0 0
BITMAP
89
99
59
56
66
22
ENDCHAR
STARTCHAR 0078
ENCODING 120
SWIDTH 540 0
DWIDTH 6 0
BBX 5 6 0 0
BITMAP
48
48
30
30
48
88
ENDCHAR
STARTCHAR 0079
ENCODING 121
SWIDTH 540 0
DWIDTH 6 0
BBX 5 9 0 -3
BITMAP
88
48
48
50
30
30
20
20
20
ENDCHAR
STARTCHAR 007A
ENCODING 122
SWIDTH 540 0
DWIDTH 6 0
BBX 5 6 0 0
BITMAP
F8
10
10
20
40
F8
ENDCHAR
STARTCHAR 007B
ENCODING 123
SWIDTH 450 0
DWIDTH 5 0
BBX 2 13 2 -3
BITMAP
40
80
80
80
80
80
80
80
80
80
80
80
40
ENDCHAR
STARTCHAR 007C
ENCODING 124
SWIDTH 270 0
DWIDTH 3 0
BBX 1 8 1 0
BITMAP
80
80
80
80
80
80
80
80
ENDCHAR
STARTCHAR 007D
ENCODING 125
SWIDTH 450 0
DWIDTH 5 0
BBX 3 13 0 -3
BITMAP
C0
40
40
40
40
20
20
20
40
40
40
40
C0
ENDCHAR
STARTCHAR 007E
ENCODING 126
SWIDTH 630 0
DWIDTH 7 0
BBX 5 3 1 2
BITMAP
08
F8
80
ENDCHAR
STARTCHAR 00A0
ENCODING 160
SWIDTH 180 0
DWIDTH 2 0
BBX 0 0 0 0
BITMAP
ENDCHAR
STARTCHAR 00A1
ENCODING 161
SWIDTH 270 0
DWIDTH 3 0
BBX 1 8 1 -2
BITMAP
80
00
80
80
80
80
80
80
ENDCHAR
STARTCHAR 00A2
ENCODING 162
SWIDTH 540 0
DWIDTH 6 0
BBX 6 8 0 0
BITMAP
10
38
44
80
80
44
38
10
ENDCHAR
STARTCHAR 00A3
ENCODING 163
SWIDTH 540 0
DWIDTH 6 0
BBX 6 8 0 0
BITMAP
38
24
20
20
F8
20
20
FC
ENDCHAR
STARTCHAR 00A4
ENCODING 164
SWIDTH 630 0
DWIDTH 7 0
BBX 7 6 0 1
BITMAP
7E
44
84
84
44
7E
ENDCHAR
STARTCHAR 00A5
ENCODING 165
SWIDTH 540 0
DWIDTH 6 0
BBX 6 8 0 0
BITMAP
84
48
48
30
78
10
78
10
ENDCHAR
STARTCHAR 00A6
ENCODING 166
SWIDTH 270 0
DWIDTH 3 0
BBX 1 10 1 -2
BITMAP
80
80
80
80
00
00
80
80
80
80
ENDCHAR
STARTCHAR 00A7
ENCODING 167
SWIDTH 540 0
DWIDTH 6 0
BBX 4 9 1 -2
BITMAP
E0
90
C0
B0
90
70
10
90
60
ENDCHAR
STARTCHAR 00A8
ENCODING 168
SWIDTH 540 0
DWIDTH 6 0
BBX 3 1 1 9
BITMAP
A0
ENDCHAR
STARTCHAR 00A9
ENCODING 169
SWIDTH 810 0
DWIDTH 9 0
BBX 9 8 0 0
BITMAP
1C00
6300
5D00
A100
A080
A100
5D00
3E00
ENDCHAR
STARTCHAR 00AA
ENCODING 170
SWIDTH 360 0
DWIDTH 4 0
BBX 3 3 0 3
BITMAP
60
60
E0
ENDCHAR
STARTCHAR 00AB
ENCODING 171
SWIDTH 540 0
DWIDTH 6 0
BBX 4 5 1 1
BITMAP
10
60
A0
A0
50
ENDCHAR
STARTCHAR 00AC
ENCODING 172
SWIDTH 630 0
DWIDTH 7 0
BBX 5 2 1 2
BITMAP
F8
08
ENDCHAR
STARTCHAR 00AD
ENCODING 173
SWIDTH 450 0
DWIDTH 5 0
BBX 3 1 1 3
BITMAP
E0
ENDCHAR
STARTCHAR 00AE
ENCODING 174
SWIDTH 630 0
DWIDTH 7 0
BBX 5 6 1 3
BITMAP
20
D8
E8
88
88
70
ENDCHAR
STARTCHAR 00AF
ENCODING 175
SWIDTH 450 0
DWIDTH 5 0
BBX 3 1 1 9
BITMAP
E0
ENDCHAR
STARTCHAR 00B0
ENCODING 176
SWIDTH 450 0
DWIDTH 5 0
BBX 4 4 0 4
BITMAP
70
90
90
70
ENDCHAR
STARTCHAR 00B1
ENCODING 177
SWIDTH 630 0
DWIDTH 7 0
BBX 5 5 1 1
BITMAP
20
F8
20
00
F8
ENDCHAR
STARTCHAR 00B2
ENCODING 178
SWIDTH 360 0
DWIDTH 4 0
BBX 3 5 1 3
BITMAP
C0
20
20
40
E0
ENDCHAR
STARTCHAR 00B3
ENCODING 179
SWIDTH 360 0
DWIDTH 4 0
BBX 3 5 1 3
BITMAP
E0
40
C0
20
C0
ENDCHAR
STARTCHAR 00B4
ENCODING 180
SWIDTH 450 0
DWIDTH 5 0
BBX 1 1 2 10
BITMAP
80
ENDCHAR
STARTCHAR 00B5
ENCODING 181
SWIDTH 630 0
DWIDTH 7 0
BBX 5 9 1 -3
BITMAP
88
88
88
88
88
F8
80
80
80
ENDCHAR
STARTCHAR 00B6
ENCODING 182
SWIDTH 630 0
DWIDTH 7 0
BBX 5 10 1 -2
BITMAP
78
F8
F8
F8
78
18
18
18
18
18
ENDCHAR
STARTCHAR 00B7
ENCODING 183
SWIDTH 270 0
DWIDTH 3 0
BBX 1 1 1 3
BITMAP
80
ENDCHAR
STARTCHAR 00B8
ENCODING 184
SWIDTH 360 0
DWIDTH 4 0
BBX 2 3 1 -3
BITMAP
80
40
C0
ENDCHAR
STARTCHAR 00B9
ENCODING 185
SWIDTH 360 0
DWIDTH 4 0
BBX 1 5 1 3
BITMAP
80
80
80
80
80
ENDCHAR
STARTCHAR 00BA
ENCODING 186
SWIDTH 360 0
DWIDTH 4 0
BBX 3 3 0 3
BITMAP
60
A0
60
ENDCHAR
STARTCHAR 00BB
ENCODING 187
SWIDTH 540 0
DWIDTH 6 0
BBX 4 4 1 2
BITMAP
A0
50
A0
A0
ENDCHAR
STARTCHAR 00BC
ENCODING 188
SWIDTH 990 0
DWIDTH 11 0
BBX 8 8 1 0
BITMAP
82
84
88
8A
12
25
47
81
ENDCHAR
STARTCHAR 00BD
ENCODING 189
SWIDTH 900 0
DWIDTH 10 0
BBX 9 8 1 0
BITMAP
8200
8400
8800
8B00
9080
2080
4300
8780
ENDCHAR
STARTCHAR 00BE
ENCODING 190
SWIDTH 990 0
DWIDTH 11 0
BBX 9 8 1 0
BITMAP
E100
4200
C400
2900
CA00
1280
2380
4080
ENDCHAR
STARTCHAR 00BF
ENCODING 191
SWIDTH 540 0
DWIDTH 6 0
BBX 4 8 1 -2
BITMAP
40
00
00
40
80
80
90
E0
ENDCHAR
STARTCHAR 00C0
ENCODING 192
SWIDTH 630 0
DWIDTH 7 0
BBX 7 10 0 1
BITMAP
10
00
10
28
28
28
44
7C
44
82
ENDCHAR
STARTCHAR 00C1
ENCODING 193
SWIDTH 630 0
DWIDTH 7 0
BBX 7 11 0 0
BITMAP
08
10
00
10
28
28
28
44
7C
44
82
ENDCHAR
STARTCHAR 00C2
ENCODING 194
SWIDTH 630 0
DWIDTH 7 0
BBX 7 10 0 0
BITMAP
38
00
10
28
28
28
44
7C
44
82
ENDCHAR
STARTCHAR 00C3
ENCODING 195
SWIDTH 630 0
DWIDTH 7 0
BBX 7 11 0 0
BITMAP
20
18
00
10
28
28
28
44
7C
44
82
ENDCHAR
STARTCHAR 00C4
ENCODING 196
SWIDTH 630 0
DWIDTH 7 0
BBX 7 10 0 0
BITMAP
28
00
10
28
28
28
44
7C
44
82
ENDCHAR
STARTCHAR 00C5
ENCODING 197
SWIDTH 630 0
DWIDTH 7 0
BBX 7 11 0 0
BITMAP
18
38
00
10
28
28
28
44
7C
44
82
ENDCHAR
STARTCHAR 00C6
ENCODING 198
SWIDTH 900 0
DWIDTH 10 0
BBX 10 8 0 0
BITMAP
1FC0
2800
2800
2780
4800
7800
4800
87C0
ENDCHAR
STARTCHAR 00C7
ENCODING 199
SWIDTH 720 0
DWIDTH 8 0
BBX 7 11 0 -3
BITMAP
3C
42
80
80
80
80
42
3C
10
08
10
ENDCHAR
STARTCHAR 00C8
ENCODING 200
SWIDTH 540 0
DWIDTH 6 0
BBX 5 10 1 1
BITMAP
20
00
F8
80
80
F0
80
80
80
F8
ENDCHAR
STARTCHAR 00C9
ENCODING 201
SWIDTH 540 0
DWIDTH 6 0
BBX 5 10 1 1
BITMAP
20
00
F8
80
80
F0
80
80
80
F8
ENDCHAR
STARTCHAR 00CA
ENCODING 202
SWIDTH 540 0
DWIDTH 6 0
BBX 5 10 1 0
BITMAP
60
00
F8
80
80
F0
80
80
80
F8
ENDCHAR
STARTCHAR 00CB
ENCODING 203
SWIDTH 540 0
DWIDTH 6 0
BBX 5 10 1 0
BITMAP
50
00
F8
80
80
F0
80
80
80
F8
ENDCHAR
STARTCHAR 00CC
ENCODING 204
SWIDTH 270 0
DWIDTH 3 0
BBX 2 11 0 0
BITMAP
80
80
00
40
40
40
40
40
40
40
40
ENDCHAR
STARTCHAR 00CD
ENCODING 205
SWIDTH 270 0
DWIDTH 3 0
BBX 1 10 1 1
BITMAP
80
00
80
80
80
80
80
80
80
80
ENDCHAR
STARTCHAR 00CE
ENCODING 206
SWIDTH 270 0
DWIDTH 3 0
BBX 3 10 0 0
BITMAP
E0
00
40
40
40
40
40
40
40
40
ENDCHAR
STARTCHAR 00CF
ENCODING 207
SWIDTH 270 0
DWIDTH 3 0
BBX 3 10 0 0
BITMAP
A0
00
40
40
40
40
40
40
40
40
ENDCHAR
STARTCHAR 00D0
ENCODING 208
SWIDTH 630 0
DWIDTH 7 0
BBX 7 8 0 0
BITMAP
78
44
42
42
F2
42
44
78
ENDCHAR
STARTCHAR 00D1
ENCODING 209
SWIDTH 720 0
DWIDTH 8 0
BBX 6 10 1 0
BITMAP
78
00
84
C4
C4
A4
94
94
8C
84
ENDCHAR
STARTCHAR 00D2
ENCODING 210
SWIDTH 720 0
DWIDTH 8 0
BBX 8 11 0 0
BITMAP
10
10
00
3C
42
82
81
81
81
42
3C
ENDCHAR
STARTCHAR 00D3
ENCODING 211
SWIDTH 720 0
DWIDTH 8 0
BBX 8 10 0 0
BITMAP
08
00
3C
42
82
81
81
81
42
3C
ENDCHAR
STARTCHAR 00D4
ENCODING 212
SWIDTH 720 0
DWIDTH 8 0
BBX 8 10 0 0
BITMAP
18
00
3C
42
82
81
81
81
42
3C
ENDCHAR
STARTCHAR 00D5
ENCODING 213
SWIDTH 720 0
DWIDTH 8 0
BBX 8 10 0 0
BITMAP
3C
00
3C
42
82
81
81
81
42
3C
ENDCHAR
STARTCHAR 00D6
ENCODING 214
SWIDTH 720 0
DWIDTH 8 0
BBX 8 10 0 0
BITMAP
04
00
3C
42
82
81
81
81
42
3C
ENDCHAR
STARTCHAR 00D7
ENCODING 215
SWIDTH 450 0
DWIDTH 5 0
BBX 4 4 1 2
BITMAP
90
60
60
90
ENDCHAR
STARTCHAR 00D8
ENCODING 216
SWIDTH 720 0
DWIDTH 8 0
BBX 8 8 0 0
BITMAP
3D
42
85
89
91
A2
42
BC
ENDCHAR
STARTCHAR 00D9
ENCODING 217
SWIDTH 720 0
DWIDTH 8 0
BBX 6 11 1 0
BITMAP
20
20
00
84
84
84
84
84
84
84
78
ENDCHAR
STARTCHAR 00DA
ENCODING 218
SWIDTH 720 0
DWIDTH 8 0
BBX 6 11 1 0
BITMAP
10
20
00
84
84
84
84
84
84
84
78
ENDCHAR
STARTCHAR 00DB
ENCODING 219
SWIDTH 720 0
DWIDTH 8 0
BBX 6 10 1 0
BITMAP
70
00
84
84
84
84
84
84
84
78
ENDCHAR
STARTCHAR 00DC
ENCODING 220
SWIDTH 720 0
DWIDTH 8 0
BBX 6 10 1 0
BITMAP
50
00
84
84
84
84
84
84
84
78
ENDCHAR
STARTCHAR 00DD
ENCODING 221
SWIDTH 540 0
DWIDTH 6 0
BBX 6 11 0 0
BITMAP
10
10
00
84
48
48
30
10
10
10
10
ENDCHAR
STARTCHAR 00DE
ENCODING 222
SWIDTH 630 0
DWIDTH 7 0
BBX 5 8 1 0
BITMAP
80
F0
88
88
88
88
F0
80
ENDCHAR
STARTCHAR 00DF
ENCODING 223
SWIDTH 630 0
DWIDTH 7 0
BBX 5 8 1 0
BITMAP
F0
90
90
B0
98
88
88
F0
ENDCHAR
STARTCHAR 00E0
ENCODING 224
SWIDTH 540 0
DWIDTH 6 0
BBX 6 9 0 0
BITMAP
20
20
00
78
48
1C
64
8C
74
ENDCHAR
STARTCHAR 00E1
ENCODING 225
SWIDTH 540 0
DWIDTH 6 0
BBX 6 9 0 0
BITMAP
10
10
00
78
48
1C
64
8C
74
ENDCHAR
STARTCHAR 00E2
ENCODING 226
SWIDTH 540 0
DWIDTH 6 0
BBX 6 8 0 0
BITMAP
30
00
78
48
1C
64
8C
74
ENDCHAR
STARTCHAR 00E3
ENCODING 227
SWIDTH 540 0
DWIDTH 6 0
BBX 6 8 0 0
BITMAP
38
00
78
48
1C
64
8C
74
ENDCHAR
STARTCHAR 00E4
ENCODING 228
SWIDTH 540 0
DWIDTH 6 0
BBX 6 8 0 0
BITMAP
28
00
78
48
1C
64
8C
74
ENDCHAR
STARTCHAR 00E5
ENCODING 229
SWIDTH 540 0
DWIDTH 6 0
BBX 6 9 0 0
BITMAP
30
30
00
78
48
1C
64
8C
74
ENDCHAR
STARTCHAR 00E6
ENCODING 230
SWIDTH 900 0
DWIDTH 10 0
BBX 10 6 0 0
BITMAP
7B80
4440
3FC0
4400
8C40
7380
ENDCHAR
STARTCHAR 00E7
ENCODING 231
SWIDTH 540 0
DWIDTH 6 0
BBX 6 9 0 -3
BITMAP
38
44
80
80
44
38
20
10
30
ENDCHAR
STARTCHAR 00E8
ENCODING 232
SWIDTH 630 0
DWIDTH 7 0
BBX 6 9 0 0
BITMAP
20
10
00
38
44
FC
80
44
38
ENDCHAR
STARTCHAR 00E9
ENCODING 233
SWIDTH 630 0
DWIDTH 7 0
BBX 6 8 0 0
BITMAP
10
00
38
44
FC
80
44
38
ENDCHAR
STARTCHAR 00EA
ENCODING 234
SWIDTH 630 0
DWIDTH 7 0
BBX 6 8 0 0
BITMAP
30
00
38
44
FC
80
44
38
ENDCHAR
STARTCHAR 00EB
ENCODING 235
SWIDTH 630 0
DWIDTH 7 0
BBX 6 8 0 0
BITMAP
28
00
38
44
FC
80
44
38
ENDCHAR
STARTCHAR 00EC
ENCODING 236
SWIDTH 270 0
DWIDTH 3 0
BBX 2 9 0 0
BITMAP
80
80
00
40
40
40
40
40
40
ENDCHAR
STARTCHAR 00ED
ENCODING 237
SWIDTH 270 0
DWIDTH 3 0
BBX 1 8 1 1
BITMAP
80
00
80
80
80
80
80
80
ENDCHAR
STARTCHAR 00EE
ENCODING 238
SWIDTH 270 0
DWIDTH 3 0
BBX 3 8 0 0
BITMAP
E0
00
40
40
40
40
40
40
ENDCHAR
STARTCHAR 00EF
ENCODING 239
SWIDTH 270 0
DWIDTH 3 0
BBX 3 8 0 0
BITMAP
A0
00
40
40
40
40
40
40
ENDCHAR
STARTCHAR 00F0
ENCODING 240
SWIDTH 540 0
DWIDTH 6 0
BBX 6 9 0 0
BITMAP
18
18
04
3C
44
84
84
44
38
ENDCHAR
STARTCHAR 00F1
ENCODING 241
SWIDTH 630 0
DWIDTH 7 0
BBX 5 8 1 0
BITMAP
70
00
F0
88
88
88
88
88
ENDCHAR
STARTCHAR 00F2
ENCODING 242
SWIDTH 630 0
DWIDTH 7 0
BBX 6 9 0 0
BITMAP
20
20
00
38
44
84
84
44
38
ENDCHAR
STARTCHAR 00F3
ENCODING 243
SWIDTH 630 0
DWIDTH 7 0
BBX 6 8 0 0
BITMAP
10
00
38
44
84
84
44
38
ENDCHAR
STARTCHAR 00F4
ENCODING 244
SWIDTH 630 0
DWIDTH 7 0
BBX 6 8 0 0
BITMAP
30
00
38
44
84
84
44
38
ENDCHAR
STARTCHAR 00F5
ENCODING 245
SWIDTH 630 0
DWIDTH 7 0
BBX 6 8 0 0
BITMAP
38
00
38
44
84
84
44
38
ENDCHAR
STARTCHAR 00F6
ENCODING 246
SWIDTH 630 0
DWIDTH 7 0
BBX 6 8 0 0
BITMAP
28
00
38
44
84
84
44
38
ENDCHAR
STARTCHAR 00F7
ENCODING 247
SWIDTH 540 0
DWIDTH 6 0
BBX 4 1 1 4
BITMAP
F0
ENDCHAR
STARTCHAR 00F8
ENCODING 248
SWIDTH 630 0
DWIDTH 7 0
BBX 6 6 0 0
BITMAP
3C
4C
94
A4
44
F8
ENDCHAR
STARTCHAR 00F9
ENCODING 249
SWIDTH 630 0
DWIDTH 7 0
BBX 5 9 1 0
BITMAP
40
40
00
88
88
88
88
88
78
ENDCHAR
STARTCHAR 00FA
ENCODING 250
SWIDTH 630 0
DWIDTH 7 0
BBX 5 9 1 0
BITMAP
20
20
00
88
88
88
88
88
78
ENDCHAR
STARTCHAR 00FB
ENCODING 251
SWIDTH 630 0
DWIDTH 7 0
BBX 5 8 1 0
BITMAP
60
00
88
88
88
88
88
78
ENDCHAR
STARTCHAR 00FC
ENCODING 252
SWIDTH 630 0
DWIDTH 7 0
BBX 5 8 1 0
BITMAP
50
00
88
88
88
88
88
78
ENDCHAR
STARTCHAR 00FD
ENCODING 253
SWIDTH 540 0
DWIDTH 6 0
BBX 5 12 0 -3
BITMAP
10
20
00
88
48
48
50
30
30
20
20
20
ENDCHAR
STARTCHAR 00FE
ENCODING 254
SWIDTH 630 0
DWIDTH 7 0
BBX 5 11 1 -3
BITMAP
80
80
F0
88
88
88
88
F0
80
80
80
ENDCHAR
STARTCHAR 00FF
ENCODING 255
SWIDTH 540 0
DWIDTH 6 0
BBX 5 11 0 -3
BITMAP
40
00
88
48
48
50
30
30
20
20
20
ENDCHAR
ENDFONT
